# xmcd
#
# Track frame offsets:
#	150
#	16055
#	31122
#	43437
#	58697
#	83532
#	98770
#	123835
#	146195
#	159577
#
# Disc length: 2343 seconds
#
# Revision: 0
# Processed by: cddbd v1.5.2PL0 Copyright (c) Steve Scherf et al.
# Submitted via: EasyCDDAExtractor 16.0.1.1
#
DISCID=7909250a
DTITLE=Jerry Douglas - Under The Wire
DYEAR=1986
DGENRE=Dobro
TTITLE0=T.O.B.
TTITLE1=Dhaka Rok
TTITLE2=Time Gone By
TTITLE3=Monroe's Hornpipe
TTITLE4=Before The Blues
TTITLE5=The Trip To Kilkerrin
TTITLE6=Grant's Corner
TTITLE7=Redhill
TTITLE8=Two Friends
TTITLE9=A New Day
EXTD=
EXTT0=
EXTT1=
EXTT2=
EXTT3=
EXTT4=
EXTT5=
EXTT6=
EXTT7=
EXTT8=
EXTT9=
PLAYORDER=
